<svg xmlns="http://www.w3.org/2000/svg" viewBox="0 0 98 96" role="img" aria-label="GitHub">
  <path fill="currentColor" fill-rule="evenodd" clip-rule="evenodd" d="M49 0C21.9 0 0 22 0 49.1c0 21.7 14.1 40.1 33.7 46.6 2.5.5 3.4-1.1 3.4-2.4 0-1.2 0-5.2-.1-9.5-13.7 3-16.6-5.8-16.6-5.8-2.2-5.7-5.5-7.2-5.5-7.2-4.5-3.1.3-3 .3-3 5 .4 7.6 5.1 7.6 5.1 4.4 7.6 11.6 5.4 14.4 4.1.4-3.2 1.7-5.4 3.1-6.6-10.9-1.2-22.4-5.5-22.4-24.4 0-5.4 1.9-9.8 5.1-13.3-.5-1.2-2.2-6.3.5-13.1 0 0 4.2-1.3 13.5 5.1 3.9-1.1 8.1-1.6 12.2-1.6s8.3.6 12.2 1.6c9.3-6.4 13.4-5.1 13.4-5.1 2.7 6.8 1 11.9.5 13.1 3.2 3.5 5.1 7.9 5.1 13.3 0 19-11.5 23.1-22.5 24.4 1.8 1.5 3.4 4.5 3.4 9.2 0 6.6-.1 11.9-.1 13.5 0 1.3.9 2.9 3.4 2.4C83.9 89.2 98 70.8 98 49.1 98 22 76.1 0 49 0Z"/>
</svg>
